
        <svg xmlns="http://www.w3.org/2000/svg" xmlns:xlink="http://www.w3.org/1999/xlink" version="1.1" width="3159.151193633952" 
        height="2291.7771883289124" viewBox="0 0 3159.151193633952 2291.7771883289124">
			
			<g transform="scale(7.957559681697613) translate(10, 10)">
				<defs id="SvgjsDefs1001"></defs><g id="SvgjsG1007" featureKey="YvLwfh-0" transform="matrix(1.3653136018867595,0,0,1.3653136018867595,335.45754781697036,-407.3173501434007)" fill="#111111"><path xmlns="http://www.w3.org/2000/svg" d="M-164.4,409.4v3.7c0,5.3-4.2,9.6-9.4,9.8c-0.1,0-0.1,0-0.2,0h-61.8c-1.8,0-3.4,0.8-4.5,2h63.2c0.6,0,1.1,0.5,1.1,1.1    s-0.5,1.1-1.1,1.1h-64.4c-0.1,0.5-0.2,1-0.2,1.6v0.7h64.6c0.6,0,1.1,0.5,1.1,1.1c0,0.6-0.5,1.1-1.1,1.1h-64.6v0.7    c0,0.6,0.1,1.1,0.2,1.6h64.4c0.6,0,1.1,0.5,1.1,1.1c0,0.6-0.5,1.1-1.1,1.1h-63.2c1.1,1.2,2.7,2,4.5,2h61.8c1.1,0,2,0.9,2,2    s-0.9,2-2,2h-61.8c-5.4,0-9.9-4.4-9.9-9.9v-3.7c0-5.3,4.2-9.6,9.4-9.8c0.1,0,0.1,0,0.2,0h61.8c1.8,0,3.4-0.8,4.5-2h-63.2    c-0.6,0-1.1-0.5-1.1-1.1s0.5-1.1,1.1-1.1h64.4c0.1-0.5,0.2-1,0.2-1.6v-0.7h-64.6c-0.6,0-1.1-0.5-1.1-1.1c0-0.6,0.5-1.1,1.1-1.1    h64.6v-0.7c0-0.6-0.1-1.1-0.2-1.6h-64.4c-0.6,0-1.1-0.5-1.1-1.1c0-0.6,0.5-1.1,1.1-1.1h63.2c-1.1-1.2-2.7-2-4.5-2H-236    c-1.1,0-2-0.9-2-2s0.9-2,2-2h25.4c-0.4-0.2-0.7-0.4-1-0.6c-2.3-1.7-3.9-3.9-5.3-6.3c-1.5-2.7-2.6-5.5-3-8.5    c-0.5-3.2-0.3-6.4,1.3-9.4c1.5-2.9,4.1-4.6,7.2-5.5c2.5-0.7,5-0.8,7.6-0.3c0.8,0.2,1.5,0.7,2.3,0.9c0-0.3,0.1-0.6,0.1-0.9    c-0.1-0.6-0.2-1.1-0.4-1.7c-0.9-2-2.2-3.3-4.1-4.4c-1.3-0.7-2.5-1.4-3.9-1.9c-0.1,0-0.1,0-0.2,0c0,0,0,0.1,0,0.1    c0.1,0.1,0.2,0.1,0.3,0.2c1.5,0.9,2.9,1.8,4.3,2.9c0.9,0.8,1.6,1.8,2.2,3c-0.4,0.2-0.7,0.3-1,0.4c-1.5,0.5-3,0.3-4.4-0.4    c-1.9-0.9-3.3-2.4-4.4-4.2c-1.7-3.1-2.1-6.3-1.2-9.7c0.1-0.4,0.2-0.8,0.4-1.1c0.1-0.1,0.2-0.3,0.3-0.3c0.1,0,0.3,0.2,0.4,0.3    c0.9,1.6,2.2,2.8,3.9,3.5c0.8,0.3,1.8,0.4,2.7,0.6c1.1,0.2,2.2,0.4,3.2,0.9c1.5,0.8,2.6,1.9,3.2,3.5c0.4,1.4,0.2,2.7-0.5,3.9    c-0.3,0.5-0.3,0.7,0,1.2c0,0,0,0.1,0.1,0.1c0.4-1,1-2,1.7-3c0.7-0.9,1.6-1.7,2.5-2.5c0.5-0.5,1.2-0.6,1.9-0.4c0.8,0.2,1,1,0.5,1.6    c-0.2,0.2-0.4,0.4-0.7,0.5c-2.9,2-5,4.6-6.3,7.9c0.7-0.1,1.5-0.7,2.2-0.9c2.6-0.5,5.1-0.4,7.6,0.3c3.1,0.9,5.6,2.5,7.2,5.5    c1.6,3,1.8,6.1,1.3,9.4c-0.5,3-1.5,5.9-3,8.5c-1.4,2.4-3,4.7-5.3,6.3c-0.3,0.2-0.6,0.4-1,0.6h17.7    C-168.8,399.5-164.4,403.9-164.4,409.4z"></path></g><g id="SvgjsG1008" featureKey="textGroupContainer" transform="matrix(1,0,0,1,376,0)" fill="#111111"><rect xmlns="http://www.w3.org/2000/svg" y="0" height="1" width="1" opacity="0"></rect><rect xmlns="http://www.w3.org/2000/svg" y="0" x="-245" width="3" height="268"></rect></g><g id="SvgjsG1009" featureKey="JZW510-0" transform="matrix(8.119486594375555,0,0,8.119486594375555,133.73536524129068,11.787493481249975)" fill="#111111"><path d="M2.04 20 c-0.1 0 -0.16 -0.08 -0.16 -0.18 l0 -12.84 c0 -0.1 0.06 -0.18 0.16 -0.18 l2.28 0 c0.1 0 0.18 0.08 0.18 0.18 l0 12.84 c0 0.1 -0.08 0.18 -0.18 0.18 l-2.28 0 z M3.08 8 l0 10.78 c0 0.18 0.22 0.18 0.22 0 l0 -10.78 c0 -0.14 -0.22 -0.14 -0.22 0 z M10.68 6.92 c0.02 -0.06 0.06 -0.12 0.14 -0.12 l2.48 0 c0.08 0 0.12 0.06 0.14 0.12 l3.46 12.86 c0.02 0.12 -0.06 0.22 -0.18 0.22 l-2.28 0 c-0.06 0 -0.12 -0.04 -0.14 -0.12 l-0.78 -2.8 l-2.92 0 l-0.76 2.8 c-0.02 0.08 -0.06 0.12 -0.14 0.12 l-2.3 0 c-0.12 0 -0.2 -0.1 -0.18 -0.22 z M11.24 14.6 l1.66 0 l-0.86 -3.02 z M14.32 15.780000000000001 l0.92 3 c0.04 0.12 0.26 0.1 0.2 -0.06 l-3.2 -10.64 c-0.06 -0.26 -0.4 -0.28 -0.46 0 l-3.1 10.64 c-0.06 0.14 0.16 0.2 0.22 0.08 l0.88 -3.02 l4.54 0 z M9.84 15.52 l2.18 -7.36 l2.22 7.36 l-4.4 0 z M22.14 6.800000000000001 c0.1 0 0.18 0.08 0.18 0.18 l0 10.5 l4.32 0 c0.1 0 0.18 0.08 0.18 0.18 l0 2.16 c0 0.1 -0.08 0.18 -0.18 0.18 l-6.78 0 c-0.1 0 -0.16 -0.08 -0.16 -0.18 l0 -12.84 c0 -0.1 0.06 -0.18 0.16 -0.18 l2.28 0 z M20.9 8.02 l0 10.76 c0 0.04 0.04 0.1 0.12 0.1 l4.62 0 c0.16 0 0.16 -0.26 0 -0.26 l-4.52 0 l0 -10.6 c0 -0.14 -0.22 -0.16 -0.22 0 z"></path></g><g id="SvgjsG1010" featureKey="zdvuGz-0" transform="matrix(0.511650980938003,0,0,0.511650980938003,148.3348538711651,190.98125989559355)" fill="#111111"><path d="M1.3 6.300000000000001 c0 -0.2 0.1 -0.3 0.3 -0.3 l1.16 0 c0.2 0 0.3 0.1 0.3 0.3 l0 13.4 c0 0.2 -0.1 0.3 -0.3 0.3 l-1.16 0 c-0.2 0 -0.3 -0.1 -0.3 -0.3 l0 -13.4 z M21.7265 6 c0.2 0 0.3 0.1 0.3 0.3 l0 13.4 c0 0.2 -0.1 0.3 -0.3 0.3 l-1.76 0 c-0.16 0 -0.28 -0.06 -0.36 -0.22 l-5.2 -11.24 l0 11.16 c0 0.2 -0.1 0.3 -0.3 0.3 l-1.14 0 c-0.2 0 -0.3 -0.1 -0.3 -0.3 l0 -13.4 c0 -0.2 0.1 -0.3 0.3 -0.3 l1.76 0 c0.16 0 0.28 0.06 0.36 0.22 l5.2 11.22 l0 -11.14 c0 -0.2 0.1 -0.3 0.3 -0.3 l1.14 0 z M36.313 11.94 c2.2 0.48 4.44 1.2 4.44 4.06 c0 2.66 -1.38 4.1 -4.02 4.1 l-1.48 0 c-2.52 0 -3.9 -1.36 -4.02 -3.82 c0 -0.22 0.12 -0.34 0.34 -0.34 l1.04 0 c0.22 0 0.36 0.12 0.36 0.34 c0.08 1.58 0.76 2.24 2.28 2.24 l1.48 0 c1.62 0 2.28 -0.68 2.28 -2.52 s-1.24 -2.1 -2.74 -2.46 l-0.88 -0.2 c-2.36 -0.52 -4 -1.26 -4 -3.8 c0 -2.48 1.42 -3.64 4.04 -3.64 l0.98 0 c2.48 0 3.8 1.36 3.92 3.76 c0.02 0.22 -0.12 0.34 -0.34 0.34 l-1.04 0 c-0.2 0 -0.34 -0.12 -0.36 -0.34 c-0.08 -1.54 -0.72 -2.18 -2.18 -2.18 l-0.98 0 c-1.6 0 -2.3 0.38 -2.3 2.06 c0 1.62 0.72 1.84 2.3 2.2 z M54.919500000000006 6 c2.6 0 3.96 1.46 3.96 4 l0 1.2 c0 2.54 -1.36 4 -3.96 4 l-3.42 0 l0 4.5 c0 0.2 -0.1 0.3 -0.3 0.3 l-1.14 0 c-0.2 0 -0.3 -0.1 -0.3 -0.3 l0 -13.4 c0 -0.2 0.1 -0.3 0.3 -0.3 l1.14 0 l3.72 0 z M57.139500000000005 11.2 l0 -1.2 c0 -1.78 -0.66 -2.42 -2.22 -2.42 l-3.42 0 l0 6.04 l3.42 0 c1.56 0 2.22 -0.64 2.22 -2.42 z M67.786 6.300000000000001 c0 -0.2 0.1 -0.3 0.3 -0.3 l1.16 0 c0.2 0 0.3 0.1 0.3 0.3 l0 13.4 c0 0.2 -0.1 0.3 -0.3 0.3 l-1.16 0 c-0.2 0 -0.3 -0.1 -0.3 -0.3 l0 -13.4 z M88.6325 19.6 c0.1 0.24 -0.02 0.4 -0.28 0.4 l-1.12 0 c-0.18 0 -0.34 -0.08 -0.4 -0.26 l-2.02 -4.56 c-0.16 0.02 -0.32 0.02 -0.5 0.02 l-3.42 0 l0 4.5 c0 0.2 -0.1 0.3 -0.3 0.3 l-1.14 0 c-0.2 0 -0.3 -0.1 -0.3 -0.3 l0 -13.4 c0 -0.2 0.1 -0.3 0.3 -0.3 l1.14 0 l3.72 0 c2.6 0 3.96 1.4 3.96 4 l0 1.2 c0 1.74 -0.62 2.96 -1.82 3.56 z M80.8925 13.620000000000001 l3.42 0 c1.56 0 2.22 -0.64 2.22 -2.42 l0 -1.2 c0 -1.78 -0.66 -2.42 -2.22 -2.42 l-3.42 0 l0 6.04 z M105.439 7.58 l-6.02 0 l0 4.76 l4.6 0 c0.2 0 0.3 0.1 0.3 0.3 l0 0.98 c0 0.2 -0.1 0.3 -0.3 0.3 l-4.6 0 l0 4.5 l6.12 0 c0.2 0 0.3 0.1 0.3 0.3 l0 0.98 c0 0.2 -0.1 0.3 -0.3 0.3 l-7.56 0 c-0.2 0 -0.3 -0.1 -0.3 -0.3 l0 -13.4 c0 -0.2 0.1 -0.3 0.3 -0.3 l7.46 0 c0.2 0 0.3 0.1 0.3 0.3 l0 0.98 c0 0.2 -0.1 0.3 -0.3 0.3 z M120.14549999999998 6 c2.56 0 3.92 1.4 3.92 3.96 l0 6.08 c0 2.56 -1.36 3.96 -3.92 3.96 l-4.28 0 l-0.72 0 c-0.2 0 -0.3 -0.1 -0.3 -0.3 l0 -13.4 c0 -0.2 0.1 -0.3 0.3 -0.3 l1.14 0 l3.86 0 z M122.32549999999999 16.04 l0 -6.08 c0 -1.74 -0.66 -2.38 -2.18 -2.38 l-3.56 0 l0 10.84 l3.56 0 c1.52 0 2.18 -0.64 2.18 -2.38 z M155.69849999999997 19.66 c0.08 0.22 -0.04 0.34 -0.24 0.34 l-1.12 0 c-0.2 0 -0.3 -0.12 -0.38 -0.34 l-0.76 -2.6 l-5.28 0 l-0.76 2.6 c-0.06 0.22 -0.18 0.34 -0.38 0.34 l-1.12 0 c-0.2 0 -0.3 -0.12 -0.24 -0.34 l4.04 -13.34 c0.06 -0.2 0.2 -0.32 0.38 -0.32 l1.42 0 c0.18 0 0.32 0.12 0.38 0.32 z M148.3585 15.54 l4.4 0 l-2.2 -7.42 z M176.18499999999997 6 c0.2 0 0.3 0.1 0.3 0.3 l0 13.4 c0 0.2 -0.1 0.3 -0.3 0.3 l-1.14 0 c-0.2 0 -0.3 -0.1 -0.3 -0.3 l0 -11.18 l-3.32 11.18 c-0.06 0.2 -0.2 0.3 -0.38 0.3 l-1.06 0 c-0.18 0 -0.32 -0.1 -0.38 -0.3 l-3.32 -11.18 l0 11.18 c0 0.2 -0.1 0.3 -0.3 0.3 l-1.14 0 c-0.2 0 -0.3 -0.1 -0.3 -0.3 l0 -13.4 c0 -0.2 0.1 -0.3 0.3 -0.3 l1.98 0 c0.2 0 0.34 0.1 0.4 0.3 l3.28 10.76 l3.32 -10.76 c0.06 -0.2 0.2 -0.3 0.4 -0.3 l1.96 0 z M193.75149999999996 12.42 c0.94 0.54 1.56 1.52 1.56 3.04 l0 0.84 c0 2.62 -1.38 3.7 -4.02 3.7 l-4.2 0 l-0.7 0 c-0.2 0 -0.3 -0.1 -0.3 -0.3 l0 -13.4 c0 -0.2 0.1 -0.3 0.3 -0.3 l1.14 0 l3.72 0 c2.4 0 3.5 1.12 3.5 3.66 c0 1.26 -0.38 2.16 -1 2.76 z M193.01149999999996 9.66 c0 -1.7 -0.4 -2.08 -1.76 -2.08 l-3.42 0 l0 4.28 l3.42 0 c1.36 0 1.76 -0.5 1.76 -2.2 z M193.57149999999996 16.3 l0 -0.84 c0 -1.78 -0.68 -2.16 -2.28 -2.16 l-3.46 0 l0 5.12 l3.46 0 c1.6 0 2.28 -0.36 2.28 -2.12 z M204.41799999999998 6.300000000000001 c0 -0.2 0.1 -0.3 0.3 -0.3 l1.16 0 c0.2 0 0.3 0.1 0.3 0.3 l0 13.4 c0 0.2 -0.1 0.3 -0.3 0.3 l-1.16 0 c-0.2 0 -0.3 -0.1 -0.3 -0.3 l0 -13.4 z M223.50449999999998 6 c0.2 0 0.3 0.1 0.3 0.3 l0 0.98 c0 0.2 -0.1 0.3 -0.3 0.3 l-3.16 0 l0 12.12 c0 0.2 -0.1 0.3 -0.3 0.3 l-1.14 0 c-0.2 0 -0.3 -0.1 -0.3 -0.3 l0 -12.12 l-3.18 0 c-0.2 0 -0.3 -0.1 -0.3 -0.3 l0 -0.98 c0 -0.2 0.1 -0.3 0.3 -0.3 l4.62 0 l3.46 0 z M232.81099999999998 6.300000000000001 c0 -0.2 0.1 -0.3 0.3 -0.3 l1.16 0 c0.2 0 0.3 0.1 0.3 0.3 l0 13.4 c0 0.2 -0.1 0.3 -0.3 0.3 l-1.16 0 c-0.2 0 -0.3 -0.1 -0.3 -0.3 l0 -13.4 z M249.59749999999997 5.9 c2.64 0 4.02 1.5 4.02 4.16 l0 5.88 c0 2.66 -1.38 4.16 -4.02 4.16 l-1.7 0 c-2.64 0 -4.02 -1.5 -4.02 -4.16 l0 -5.88 c0 -2.66 1.38 -4.16 4.02 -4.16 l1.7 0 z M251.87749999999997 15.940000000000001 l0 -5.88 c0 -1.84 -0.68 -2.58 -2.28 -2.58 l-1.7 0 c-1.62 0 -2.28 0.74 -2.28 2.58 l0 5.88 c0 1.84 0.66 2.58 2.28 2.58 l1.7 0 c1.6 0 2.28 -0.74 2.28 -2.58 z M272.304 6 c0.22 0 0.36 0.12 0.36 0.34 l0 9.6 c0 2.68 -1.36 4.16 -4.02 4.16 l-1.7 0 c-2.66 0 -4.02 -1.48 -4.02 -4.16 l0 -9.6 c0 -0.22 0.12 -0.34 0.34 -0.34 l1.06 0 c0.22 0 0.34 0.12 0.34 0.34 l0 9.6 c0 1.78 0.72 2.58 2.28 2.58 l1.7 0 c1.56 0 2.28 -0.8 2.28 -2.58 l0 -9.6 c0 -0.22 0.12 -0.34 0.34 -0.34 l1.04 0 z M286.8505 11.94 c2.2 0.48 4.44 1.2 4.44 4.06 c0 2.66 -1.38 4.1 -4.02 4.1 l-1.48 0 c-2.52 0 -3.9 -1.36 -4.02 -3.82 c0 -0.22 0.12 -0.34 0.34 -0.34 l1.04 0 c0.22 0 0.36 0.12 0.36 0.34 c0.08 1.58 0.76 2.24 2.28 2.24 l1.48 0 c1.62 0 2.28 -0.68 2.28 -2.52 s-1.24 -2.1 -2.74 -2.46 l-0.88 -0.2 c-2.36 -0.52 -4 -1.26 -4 -3.8 c0 -2.48 1.42 -3.64 4.04 -3.64 l0.98 0 c2.48 0 3.8 1.36 3.92 3.76 c0.02 0.22 -0.12 0.34 -0.34 0.34 l-1.04 0 c-0.2 0 -0.34 -0.12 -0.36 -0.34 c-0.08 -1.54 -0.72 -2.18 -2.18 -2.18 l-0.98 0 c-1.6 0 -2.3 0.38 -2.3 2.06 c0 1.62 0.72 1.84 2.3 2.2 z M320.44350000000003 18.42 c0.2 0 0.3 0.1 0.3 0.3 l0 0.98 c0 0.2 -0.1 0.3 -0.3 0.3 l-6.94 0 c-0.2 0 -0.3 -0.1 -0.3 -0.3 l0 -13.4 c0 -0.2 0.1 -0.3 0.3 -0.3 l1.14 0 c0.2 0 0.3 0.1 0.3 0.3 l0 12.12 l5.5 0 z M335.04999999999995 5.9 c2.64 0 4.02 1.5 4.02 4.16 l0 5.88 c0 2.66 -1.38 4.16 -4.02 4.16 l-1.7 0 c-2.64 0 -4.02 -1.5 -4.02 -4.16 l0 -5.88 c0 -2.66 1.38 -4.16 4.02 -4.16 l1.7 0 z M337.33 15.940000000000001 l0 -5.88 c0 -1.84 -0.68 -2.58 -2.28 -2.58 l-1.7 0 c-1.62 0 -2.28 0.74 -2.28 2.58 l0 5.88 c0 1.84 0.66 2.58 2.28 2.58 l1.7 0 c1.6 0 2.28 -0.74 2.28 -2.58 z M357.4164999999999 15.74 c0.22 0 0.34 0.12 0.34 0.34 c-0.12 2.64 -1.48 4.02 -4.02 4.02 l-1.54 0 c-2.64 0 -4.02 -1.5 -4.02 -4.16 l0 -5.88 c0 -2.66 1.38 -4.16 4.02 -4.16 l1.54 0 c2.54 0 3.9 1.38 4.02 4.02 c0 0.22 -0.12 0.34 -0.34 0.34 l-1.04 0 c-0.22 0 -0.36 -0.12 -0.36 -0.34 c-0.08 -1.78 -0.76 -2.44 -2.28 -2.44 l-1.54 0 c-1.62 0 -2.28 0.74 -2.28 2.58 l0 5.88 c0 1.84 0.66 2.58 2.28 2.58 l1.54 0 c1.52 0 2.2 -0.66 2.28 -2.44 c0 -0.22 0.14 -0.34 0.36 -0.34 l1.04 0 z M376.363 19.52 c0.12 0.16 0.14 0.48 -0.12 0.48 l-1.3 0 c-0.22 0 -0.4 -0.06 -0.54 -0.28 l-4.38 -6.12 l-1.22 1.54 l0 4.56 c0 0.2 -0.1 0.3 -0.3 0.3 l-1.14 0 c-0.2 0 -0.3 -0.1 -0.3 -0.3 l0 -13.4 c0 -0.2 0.1 -0.3 0.3 -0.3 l1.14 0 c0.2 0 0.3 0.1 0.3 0.3 l0 6.46 l4.96 -6.46 c0.14 -0.2 0.28 -0.3 0.48 -0.3 l1.3 0 c0.22 0 0.32 0.22 0.14 0.46 l-4.48 5.74 z M393.10949999999997 7.58 l-6.02 0 l0 4.76 l4.6 0 c0.2 0 0.3 0.1 0.3 0.3 l0 0.98 c0 0.2 -0.1 0.3 -0.3 0.3 l-4.6 0 l0 4.5 l6.12 0 c0.2 0 0.3 0.1 0.3 0.3 l0 0.98 c0 0.2 -0.1 0.3 -0.3 0.3 l-7.56 0 c-0.2 0 -0.3 -0.1 -0.3 -0.3 l0 -13.4 c0 -0.2 0.1 -0.3 0.3 -0.3 l7.46 0 c0.2 0 0.3 0.1 0.3 0.3 l0 0.98 c0 0.2 -0.1 0.3 -0.3 0.3 z M407.816 6 c2.56 0 3.92 1.4 3.92 3.96 l0 6.08 c0 2.56 -1.36 3.96 -3.92 3.96 l-4.28 0 l-0.72 0 c-0.2 0 -0.3 -0.1 -0.3 -0.3 l0 -13.4 c0 -0.2 0.1 -0.3 0.3 -0.3 l1.14 0 l3.86 0 z M409.9959999999999 16.04 l0 -6.08 c0 -1.74 -0.66 -2.38 -2.18 -2.38 l-3.56 0 l0 10.84 l3.56 0 c1.52 0 2.18 -0.64 2.18 -2.38 z"></path></g>
			</g>
		</svg>
	